<svg width="206" height="56" viewBox="0 0 206 56" fill="none" xmlns="http://www.w3.org/2000/svg">
<path d="M26 48H18C16.8975 48 16 47.1025 16 46C16 44.8975 16.8975 44 18 44H26C27.1025 44 28 44.8975 28 46C28 47.1025 27.1025 48 26 48Z" fill="#186250"/>
<path d="M91 48H86C84.8975 48 84 47.1025 84 46C84 44.8975 84.8975 44 86 44H89.34L92.0375 29.6325C92 22.28 85.72 16 78 16H64.8675L58.5025 44H70C71.1025 44 72 44.8975 72 46C72 47.1025 71.1025 48 70 48H56C55.3925 48 54.8175 47.7225 54.435 47.2475C54.055 46.775 53.9125 46.1525 54.0475 45.56L61.32 13.56C61.5275 12.645 62.335 12 63.2725 12H78C87.9225 12 96 20.075 96 30L92.965 46.3675C92.7875 47.3175 91.9625 48 91 48Z" fill="#186250"/>
<path d="M78 56C72.4875 56 68 51.515 68 46C68 40.485 72.4875 36 78 36C83.5125 36 88 40.485 88 46C88 51.515 83.5125 56 78 56ZM78 40C74.6925 40 72 42.6925 72 46C72 49.3075 74.6925 52 78 52C81.3075 52 84 49.3075 84 46C84 42.6925 81.3075 40 78 40Z" fill="#186250"/>
<path d="M34 56C28.4875 56 24 51.515 24 46C24 40.485 28.4875 36 34 36C39.5125 36 44 40.485 44 46C44 51.515 39.5125 56 34 56ZM34 40C30.6925 40 28 42.6925 28 46C28 49.3075 30.6925 52 34 52C37.3075 52 40 49.3075 40 46C40 42.6925 37.3075 40 34 40Z" fill="#186250"/>
<path d="M26 12H10C8.8975 12 8 11.1025 8 10C8 8.8975 8.8975 8 10 8H26C27.1025 8 28 8.8975 28 10C28 11.1025 27.1025 12 26 12Z" fill="#186250"/>
<path d="M26 24H6C4.8975 24 4 23.1025 4 22C4 20.8975 4.8975 20 6 20H26C27.1025 20 28 20.8975 28 22C28 23.1025 27.1025 24 26 24Z" fill="#186250"/>
<path d="M26 36H2C0.8975 36 0 35.1025 0 34C0 32.8975 0.8975 32 2 32H26C27.1025 32 28 32.8975 28 34C28 35.1025 27.1025 36 26 36Z" fill="#186250"/>
<path d="M56 48H42C40.8975 48 40 47.1025 40 46C40 44.8975 40.8975 44 42 44H54.405L63.4925 4H18C16.8975 4 16 3.1025 16 2C16 0.8975 16.8975 0 18 0H66C66.6075 0 67.1825 0.2775 67.565 0.7525C67.945 1.225 68.0875 1.8475 67.9525 2.44L57.9525 46.44C57.745 47.3575 56.9325 48 56 48Z" fill="#186250"/>
<path d="M114.662 24V7.64844H119.491C120.936 7.64844 122.216 7.97038 123.332 8.61426C124.455 9.25814 125.324 10.1715 125.938 11.3545C126.551 12.5374 126.858 13.8926 126.858 15.4199V16.2397C126.858 17.7896 126.548 19.1522 125.926 20.3276C125.312 21.5031 124.433 22.409 123.287 23.0454C122.149 23.6818 120.843 24 119.368 24H114.662ZM117.503 9.93945V21.7314H119.356C120.846 21.7314 121.988 21.2673 122.782 20.3389C123.583 19.403 123.991 18.0628 124.006 16.3184V15.4087C124.006 13.6343 123.62 12.2791 122.849 11.3433C122.078 10.4074 120.959 9.93945 119.491 9.93945H117.503Z" fill="white"/>
<path d="M134.776 24.2246C133.046 24.2246 131.643 23.6818 130.564 22.5962C129.494 21.5031 128.958 20.0506 128.958 18.2388V17.9019C128.958 16.689 129.191 15.6071 129.655 14.6562C130.126 13.6979 130.785 12.953 131.631 12.4214C132.477 11.8898 133.421 11.624 134.461 11.624C136.116 11.624 137.393 12.1519 138.291 13.2075C139.197 14.2632 139.65 15.7568 139.65 17.6885V18.7891H131.71C131.792 19.7923 132.125 20.5859 132.709 21.1699C133.301 21.7539 134.042 22.0459 134.933 22.0459C136.183 22.0459 137.202 21.5405 137.988 20.5298L139.459 21.9336C138.972 22.6598 138.321 23.2251 137.505 23.6294C136.696 24.0262 135.787 24.2246 134.776 24.2246ZM134.45 13.814C133.701 13.814 133.095 14.076 132.631 14.6001C132.174 15.1242 131.882 15.8542 131.755 16.79H136.955V16.5879C136.895 15.6745 136.651 14.9857 136.225 14.5215C135.798 14.0498 135.206 13.814 134.45 13.814Z" fill="white"/>
<path d="M144.681 24H141.952V6.75H144.681V24Z" fill="white"/>
<path d="M150.566 24H147.837V11.8486H150.566V24ZM147.668 8.69287C147.668 8.2736 147.799 7.92546 148.062 7.64844C148.331 7.37142 148.713 7.23291 149.207 7.23291C149.701 7.23291 150.083 7.37142 150.353 7.64844C150.622 7.92546 150.757 8.2736 150.757 8.69287C150.757 9.10465 150.622 9.44906 150.353 9.72607C150.083 9.99561 149.701 10.1304 149.207 10.1304C148.713 10.1304 148.331 9.99561 148.062 9.72607C147.799 9.44906 147.668 9.10465 147.668 8.69287Z" fill="white"/>
<path d="M157.832 20.541L160.404 11.8486H163.223L159.011 24H156.642L152.396 11.8486H155.227L157.832 20.541Z" fill="white"/>
<path d="M170.129 24.2246C168.4 24.2246 166.996 23.6818 165.918 22.5962C164.847 21.5031 164.312 20.0506 164.312 18.2388V17.9019C164.312 16.689 164.544 15.6071 165.008 14.6562C165.48 13.6979 166.139 12.953 166.985 12.4214C167.831 11.8898 168.774 11.624 169.815 11.624C171.47 11.624 172.746 12.1519 173.645 13.2075C174.55 14.2632 175.003 15.7568 175.003 17.6885V18.7891H167.063C167.146 19.7923 167.479 20.5859 168.063 21.1699C168.654 21.7539 169.396 22.0459 170.287 22.0459C171.537 22.0459 172.555 21.5405 173.341 20.5298L174.812 21.9336C174.326 22.6598 173.674 23.2251 172.858 23.6294C172.05 24.0262 171.14 24.2246 170.129 24.2246ZM169.804 13.814C169.055 13.814 168.449 14.076 167.984 14.6001C167.528 15.1242 167.236 15.8542 167.108 16.79H172.308V16.5879C172.248 15.6745 172.005 14.9857 171.578 14.5215C171.151 14.0498 170.56 13.814 169.804 13.814Z" fill="white"/>
<path d="M183.494 14.3418C183.134 14.2819 182.764 14.252 182.382 14.252C181.132 14.252 180.289 14.7311 179.855 15.6895V24H177.126V11.8486H179.731L179.799 13.2075C180.458 12.1519 181.371 11.624 182.539 11.624C182.928 11.624 183.25 11.6764 183.505 11.7812L183.494 14.3418Z" fill="white"/>
<path d="M189.67 20.0918L192.141 11.8486H195.05L190.221 25.8418C189.479 27.8857 188.222 28.9077 186.447 28.9077C186.05 28.9077 185.612 28.8403 185.133 28.7056V26.5942L185.65 26.6279C186.339 26.6279 186.855 26.5007 187.2 26.2461C187.552 25.999 187.829 25.5798 188.031 24.9883L188.424 23.9438L184.156 11.8486H187.099L189.67 20.0918Z" fill="white"/>
<path d="M127.195 48.8774C126.604 49.6486 125.784 50.2326 124.736 50.6294C123.688 51.0262 122.497 51.2246 121.165 51.2246C119.794 51.2246 118.582 50.9139 117.526 50.2925C116.47 49.6711 115.654 48.7839 115.078 47.6309C114.509 46.4704 114.213 45.119 114.19 43.5767V42.2964C114.19 39.8257 114.782 37.8978 115.965 36.5127C117.148 35.1201 118.799 34.4238 120.917 34.4238C122.737 34.4238 124.182 34.873 125.252 35.7715C126.323 36.6699 126.967 37.9652 127.184 39.6572H124.399C124.084 37.6882 122.943 36.7036 120.974 36.7036C119.701 36.7036 118.731 37.1641 118.065 38.085C117.406 38.9984 117.065 40.3423 117.043 42.1167V43.3745C117.043 45.1414 117.414 46.5153 118.155 47.4961C118.903 48.4694 119.94 48.9561 121.266 48.9561C122.718 48.9561 123.751 48.6266 124.365 47.9678V44.7671H120.996V42.6108H127.195V48.8774Z" fill="white"/>
<path d="M136.416 41.3418C136.056 41.2819 135.686 41.252 135.304 41.252C134.053 41.252 133.211 41.7311 132.777 42.6895V51H130.048V38.8486H132.653L132.721 40.2075C133.38 39.1519 134.293 38.624 135.461 38.624C135.85 38.624 136.172 38.6764 136.427 38.7812L136.416 41.3418Z" fill="white"/>
<path d="M145.063 51C144.943 50.7679 144.838 50.3898 144.749 49.8657C143.88 50.7716 142.817 51.2246 141.559 51.2246C140.339 51.2246 139.343 50.8765 138.572 50.1802C137.801 49.4839 137.415 48.6229 137.415 47.5972C137.415 46.3019 137.894 45.3099 138.853 44.6211C139.818 43.9248 141.196 43.5767 142.985 43.5767H144.659V42.7793C144.659 42.1504 144.483 41.6488 144.131 41.2744C143.779 40.8926 143.244 40.7017 142.525 40.7017C141.903 40.7017 141.394 40.8589 140.998 41.1733C140.601 41.4803 140.402 41.8734 140.402 42.3525H137.673C137.673 41.6862 137.894 41.0648 138.336 40.4883C138.778 39.9043 139.377 39.4476 140.133 39.1182C140.896 38.7887 141.746 38.624 142.682 38.624C144.105 38.624 145.239 38.9834 146.085 39.7021C146.931 40.4134 147.365 41.4167 147.388 42.7119V48.1924C147.388 49.2855 147.541 50.1577 147.848 50.8091V51H145.063ZM142.064 49.0347C142.604 49.0347 143.109 48.9036 143.581 48.6416C144.06 48.3796 144.419 48.0277 144.659 47.5859V45.2949H143.188C142.177 45.2949 141.417 45.4709 140.908 45.8228C140.399 46.1746 140.144 46.6725 140.144 47.3164C140.144 47.8405 140.316 48.2598 140.661 48.5742C141.013 48.8812 141.48 49.0347 142.064 49.0347Z" fill="white"/>
<path d="M153.666 35.895V38.8486H155.811V40.8701H153.666V47.6533C153.666 48.1175 153.755 48.4544 153.935 48.6641C154.122 48.8662 154.452 48.9673 154.923 48.9673C155.238 48.9673 155.556 48.9299 155.878 48.855V50.9663C155.257 51.1385 154.658 51.2246 154.081 51.2246C151.985 51.2246 150.937 50.0679 150.937 47.7544V40.8701H148.938V38.8486H150.937V35.895H153.666Z" fill="white"/>
<path d="M165.267 49.8096C164.465 50.7529 163.327 51.2246 161.853 51.2246C160.535 51.2246 159.535 50.839 158.854 50.0679C158.18 49.2967 157.843 48.1812 157.843 46.7212V38.8486H160.572V46.6875C160.572 48.2298 161.212 49.001 162.493 49.001C163.818 49.001 164.713 48.5256 165.177 47.5747V38.8486H167.906V51H165.334L165.267 49.8096Z" fill="white"/>
<path d="M173.588 51H170.859V38.8486H173.588V51ZM170.691 35.6929C170.691 35.2736 170.822 34.9255 171.084 34.6484C171.354 34.3714 171.735 34.2329 172.229 34.2329C172.724 34.2329 173.105 34.3714 173.375 34.6484C173.645 34.9255 173.779 35.2736 173.779 35.6929C173.779 36.1047 173.645 36.4491 173.375 36.7261C173.105 36.9956 172.724 37.1304 172.229 37.1304C171.735 37.1304 171.354 36.9956 171.084 36.7261C170.822 36.4491 170.691 36.1047 170.691 35.6929Z" fill="white"/>
<path d="M179.99 35.895V38.8486H182.135V40.8701H179.99V47.6533C179.99 48.1175 180.08 48.4544 180.259 48.6641C180.446 48.8662 180.776 48.9673 181.248 48.9673C181.562 48.9673 181.88 48.9299 182.202 48.855V50.9663C181.581 51.1385 180.982 51.2246 180.405 51.2246C178.309 51.2246 177.261 50.0679 177.261 47.7544V40.8701H175.262V38.8486H177.261V35.895H179.99Z" fill="white"/>
<path d="M183.381 44.812C183.381 43.6216 183.617 42.5509 184.089 41.6001C184.561 40.6418 185.223 39.908 186.077 39.3989C186.93 38.8823 187.911 38.624 189.019 38.624C190.659 38.624 191.988 39.1519 193.006 40.2075C194.032 41.2632 194.586 42.6632 194.668 44.4077L194.679 45.0479C194.679 46.2458 194.447 47.3164 193.983 48.2598C193.526 49.2031 192.867 49.9331 192.006 50.4497C191.153 50.9663 190.165 51.2246 189.042 51.2246C187.327 51.2246 185.953 50.6556 184.92 49.5176C183.894 48.3721 183.381 46.8485 183.381 44.9468V44.812ZM186.11 45.0479C186.11 46.2982 186.369 47.279 186.885 47.9902C187.402 48.694 188.121 49.0459 189.042 49.0459C189.962 49.0459 190.677 48.6865 191.187 47.9678C191.703 47.249 191.961 46.1971 191.961 44.812C191.961 43.5841 191.696 42.6108 191.164 41.8921C190.64 41.1733 189.925 40.814 189.019 40.814C188.128 40.814 187.421 41.1696 186.896 41.8809C186.372 42.5846 186.11 43.6403 186.11 45.0479Z" fill="white"/>
<path d="M199.317 40.084L195.892 39.0957L196.51 37.1978L199.901 38.5117L199.733 34.6484H201.743L201.575 38.5791L204.91 37.2876L205.517 39.2192L202.035 40.2075L204.281 43.1948L202.653 44.3853L200.631 41.1509L198.632 44.2842L196.993 43.1387L199.317 40.084Z" fill="white"/>
</svg>
